<svg width="44" height="44" viewBox="0 0 44 44" fill="none" xmlns="http://www.w3.org/2000/svg">
<path d="M9 38.5V39.5H11V38.5H9ZM33 38.5V39.5H35V38.5H33ZM11 38.5V36.9996H9V38.5H11ZM19 29H25V27H19V29ZM33 36.9996V38.5H35V36.9996H33ZM25 29C29.4183 29 33 32.5814 33 36.9996H35C35 31.4767 30.5228 27 25 27V29ZM11 36.9996C11 32.5814 14.5817 29 19 29V27C13.4772 27 9 31.4767 9 36.9996H11ZM22 9C18.134 9 15 12.134 15 16H17C17 13.2386 19.2386 11 22 11V9ZM29 16C29 12.134 25.866 9 22 9V11C24.7614 11 27 13.2386 27 16H29ZM22 23C25.866 23 29 19.866 29 16H27C27 18.7614 24.7614 21 22 21V23ZM22 21C19.2386 21 17 18.7614 17 16H15C15 19.866 18.134 23 22 23V21ZM22 42C10.9543 42 2 33.0457 2 22H0C0 34.1503 9.84974 44 22 44V42ZM42 22C42 33.0457 33.0457 42 22 42V44C34.1503 44 44 34.1503 44 22H42ZM22 2C33.0457 2 42 10.9543 42 22H44C44 9.84974 34.1503 0 22 0V2ZM22 0C9.84974 0 0 9.84974 0 22H2C2 10.9543 10.9543 2 22 2V0Z" fill="black"/>
</svg>
