<svg width="46" height="46" viewBox="0 0 46 46" fill="none" xmlns="http://www.w3.org/2000/svg">
<path d="M9 39.5V41.5H13V39.5H9ZM33 39.5V41.5H37V39.5H33ZM13 39.5V37.9996H9V39.5H13ZM20 31H26V27H20V31ZM33 37.9996V39.5H37V37.9996H33ZM26 31C29.8661 31 33 34.1337 33 37.9996H37C37 31.9243 32.075 27 26 27V31ZM13 37.9996C13 34.1337 16.1339 31 20 31V27C13.925 27 9 31.9243 9 37.9996H13ZM23 9C18.5817 9 15 12.5817 15 17H19C19 14.7909 20.7909 13 23 13V9ZM31 17C31 12.5817 27.4183 9 23 9V13C25.2091 13 27 14.7909 27 17H31ZM23 25C27.4183 25 31 21.4183 31 17H27C27 19.2091 25.2091 21 23 21V25ZM23 21C20.7909 21 19 19.2091 19 17H15C15 21.4183 18.5817 25 23 25V21ZM23 42C12.5066 42 4 33.4934 4 23H0C0 35.7025 10.2975 46 23 46V42ZM42 23C42 33.4934 33.4934 42 23 42V46C35.7025 46 46 35.7025 46 23H42ZM23 4C33.4934 4 42 12.5066 42 23H46C46 10.2975 35.7025 0 23 0V4ZM23 0C10.2975 0 0 10.2975 0 23H4C4 12.5066 12.5066 4 23 4V0Z" fill="black"/>
</svg>
